<?xml version="1.0" encoding="UTF-8"?>
<svg width="1200" height="700" viewBox="0 0 1200 700" xmlns="http://www.w3.org/2000/svg" role="img" aria-label="Cobros SaaS App preview">
  <defs>
    <linearGradient id="bg" x1="0" x2="1">
      <stop offset="0" stop-color="#f4f6fb" />
      <stop offset="1" stop-color="#eef2ff" />
    </linearGradient>
    <filter id="shadow" x="-20%" y="-20%" width="140%" height="140%">
      <feDropShadow dx="0" dy="8" stdDeviation="12" flood-color="#000" flood-opacity="0.08"/>
    </filter>
  </defs>
  <rect width="1200" height="700" fill="url(#bg)" rx="8" />

  <!-- Browser window -->
  <g transform="translate(60,60)">
    <rect width="1080" height="580" rx="12" fill="#ffffff" stroke="#e6e9ef" filter="url(#shadow)" />

    <!-- Top bar -->
    <rect x="0" y="0" width="1080" height="64" rx="12" fill="#3C3489" />
    <text x="20" y="42" fill="#fff" font-family="Arial, Helvetica, sans-serif" font-size="22" font-weight="600">Cobros SaaS — Dashboard</text>

    <!-- Sidebar -->
    <rect x="18" y="88" width="180" height="452" rx="8" fill="#f6f7fb" stroke="#e9edf6" />
    <g fill="#9aa5c7" font-family="Arial" font-size="14">
      <text x="36" y="120">Inicio</text>
      <text x="36" y="155">Cobros</text>
      <text x="36" y="190">Clientes</text>
      <text x="36" y="225">Informes</text>
      <text x="36" y="260">Ajustes</text>
    </g>

    <!-- Metrics -->
    <rect x="212" y="88" width="836" height="120" rx="8" fill="#f8f9ff" />
    <g fill="#2b2f42" font-family="Arial" font-size="18" font-weight="700">
      <text x="232" y="130">Cobros pendientes</text>
      <text x="232" y="162" font-size="28">$12,430</text>
      <text x="460" y="162" font-size="16" fill="#6b7280">+12% vs semana</text>
    </g>

    <!-- Table / list mock -->
    <rect x="212" y="224" width="836" height="312" rx="8" fill="#fff" stroke="#eef2f8" />
    <g font-family="Arial" font-size="13" fill="#253045">
      <text x="236" y="256" font-weight="600">Cliente</text>
      <text x="480" y="256" font-weight="600">Factura</text>
      <text x="680" y="256" font-weight="600">Vencimiento</text>
      <text x="900" y="256" font-weight="600">Estado</text>

      <text x="236" y="290">Acme S.A.</text>
      <text x="480" y="290">#INV-0012</text>
      <text x="680" y="290">2026-06-25</text>
      <rect x="880" y="276" width="120" height="28" rx="14" fill="#ffefc7" />
      <text x="902" y="296" font-size="12" fill="#a76a00">Vencida</text>

      <text x="236" y="323">BetaCorp</text>
      <text x="480" y="323">#INV-0011</text>
      <text x="680" y="323">2026-07-02</text>
      <rect x="880" y="309" width="120" height="28" rx="14" fill="#e6f9ed" />
      <text x="902" y="329" font-size="12" fill="#196e3a">Pendiente</text>

      <text x="236" y="356">Delta LLC</text>
      <text x="480" y="356">#INV-0010</text>
      <text x="680" y="356">2026-07-10</text>
      <rect x="880" y="342" width="120" height="28" rx="14" fill="#eef2ff" />
      <text x="902" y="362" font-size="12" fill="#3C3489">Pagado</text>
    </g>

    <!-- Footer tag -->
    <text x="18" y="570" font-family="Arial" font-size="12" fill="#94a3b8">Preview generated from cobros_saas_app.html</text>
  </g>
</svg>
